<mxfile host="Electron" modified="2025-03-03T20:53:53.118Z" agent="Mozilla/5.0 (Windows NT 10.0; Win64; x64) AppleWebKit/537.36 (KHTML, like Gecko) draw.io/23.0.2 Chrome/120.0.6099.109 Electron/28.1.0 Safari/537.36" etag="QH8DGmClK0hVb1hEas3G" version="23.0.2" type="device" pages="2">
  <diagram name="Страница — 1" id="awr2LzgpcbYOEy6P-Yx6">
    <mxGraphModel dx="1219" dy="722" grid="1" gridSize="10" guides="1" tooltips="1" connect="1" arrows="1" fold="1" page="1" pageScale="1" pageWidth="827" pageHeight="1169" math="0" shadow="0">
      <root>
        <mxCell id="0" />
        <mxCell id="1" parent="0" />
        <mxCell id="WmZZTdoxgeQlKeElNgzJ-1" value="&lt;font style=&quot;font-size: 16px;&quot;&gt;Книга&lt;/font&gt;" style="ellipse;whiteSpace=wrap;html=1;" parent="1" vertex="1">
          <mxGeometry x="350" y="280" width="120" height="80" as="geometry" />
        </mxCell>
        <mxCell id="WmZZTdoxgeQlKeElNgzJ-8" style="rounded=0;orthogonalLoop=1;jettySize=auto;html=1;exitX=0;exitY=1;exitDx=0;exitDy=0;entryX=1;entryY=0;entryDx=0;entryDy=0;" parent="1" source="WmZZTdoxgeQlKeElNgzJ-2" target="WmZZTdoxgeQlKeElNgzJ-5" edge="1">
          <mxGeometry relative="1" as="geometry" />
        </mxCell>
        <mxCell id="WmZZTdoxgeQlKeElNgzJ-16" style="rounded=0;orthogonalLoop=1;jettySize=auto;html=1;exitX=0.5;exitY=1;exitDx=0;exitDy=0;entryX=0.5;entryY=0;entryDx=0;entryDy=0;" parent="1" source="WmZZTdoxgeQlKeElNgzJ-2" target="WmZZTdoxgeQlKeElNgzJ-11" edge="1">
          <mxGeometry relative="1" as="geometry" />
        </mxCell>
        <mxCell id="WmZZTdoxgeQlKeElNgzJ-26" style="rounded=0;orthogonalLoop=1;jettySize=auto;html=1;exitX=1;exitY=0;exitDx=0;exitDy=0;entryX=0;entryY=0.5;entryDx=0;entryDy=0;" parent="1" source="WmZZTdoxgeQlKeElNgzJ-2" target="WmZZTdoxgeQlKeElNgzJ-1" edge="1">
          <mxGeometry relative="1" as="geometry" />
        </mxCell>
        <mxCell id="2InDbLnJ1QowNH9i8I7--2" style="edgeStyle=orthogonalEdgeStyle;rounded=0;orthogonalLoop=1;jettySize=auto;html=1;exitX=0;exitY=0.5;exitDx=0;exitDy=0;entryX=1;entryY=0.5;entryDx=0;entryDy=0;" edge="1" parent="1" source="WmZZTdoxgeQlKeElNgzJ-2" target="2InDbLnJ1QowNH9i8I7--1">
          <mxGeometry relative="1" as="geometry" />
        </mxCell>
        <mxCell id="2InDbLnJ1QowNH9i8I7--4" style="rounded=0;orthogonalLoop=1;jettySize=auto;html=1;exitX=0;exitY=0;exitDx=0;exitDy=0;entryX=1;entryY=1;entryDx=0;entryDy=0;" edge="1" parent="1" source="WmZZTdoxgeQlKeElNgzJ-2" target="2InDbLnJ1QowNH9i8I7--3">
          <mxGeometry relative="1" as="geometry" />
        </mxCell>
        <mxCell id="WmZZTdoxgeQlKeElNgzJ-2" value="&lt;font style=&quot;font-size: 16px;&quot;&gt;1984&lt;/font&gt;" style="ellipse;whiteSpace=wrap;html=1;" parent="1" vertex="1">
          <mxGeometry x="190" y="350" width="120" height="80" as="geometry" />
        </mxCell>
        <mxCell id="WmZZTdoxgeQlKeElNgzJ-9" style="rounded=0;orthogonalLoop=1;jettySize=auto;html=1;exitX=1;exitY=1;exitDx=0;exitDy=0;entryX=0;entryY=0;entryDx=0;entryDy=0;" parent="1" source="WmZZTdoxgeQlKeElNgzJ-3" target="WmZZTdoxgeQlKeElNgzJ-6" edge="1">
          <mxGeometry relative="1" as="geometry" />
        </mxCell>
        <mxCell id="WmZZTdoxgeQlKeElNgzJ-15" style="rounded=0;orthogonalLoop=1;jettySize=auto;html=1;exitX=0.5;exitY=1;exitDx=0;exitDy=0;entryX=0.5;entryY=0;entryDx=0;entryDy=0;" parent="1" source="WmZZTdoxgeQlKeElNgzJ-3" target="WmZZTdoxgeQlKeElNgzJ-12" edge="1">
          <mxGeometry relative="1" as="geometry" />
        </mxCell>
        <mxCell id="WmZZTdoxgeQlKeElNgzJ-27" style="rounded=0;orthogonalLoop=1;jettySize=auto;html=1;exitX=0;exitY=0;exitDx=0;exitDy=0;entryX=1;entryY=1;entryDx=0;entryDy=0;" parent="1" source="WmZZTdoxgeQlKeElNgzJ-3" target="WmZZTdoxgeQlKeElNgzJ-1" edge="1">
          <mxGeometry relative="1" as="geometry" />
        </mxCell>
        <mxCell id="N6IqeCfLmA1m9oxBwfT0-7" style="rounded=0;orthogonalLoop=1;jettySize=auto;html=1;exitX=0;exitY=0.5;exitDx=0;exitDy=0;entryX=1;entryY=0;entryDx=0;entryDy=0;" edge="1" parent="1" source="WmZZTdoxgeQlKeElNgzJ-3" target="N6IqeCfLmA1m9oxBwfT0-5">
          <mxGeometry relative="1" as="geometry" />
        </mxCell>
        <mxCell id="N6IqeCfLmA1m9oxBwfT0-8" style="rounded=0;orthogonalLoop=1;jettySize=auto;html=1;exitX=0;exitY=1;exitDx=0;exitDy=0;entryX=0.5;entryY=0;entryDx=0;entryDy=0;" edge="1" parent="1" source="WmZZTdoxgeQlKeElNgzJ-3" target="N6IqeCfLmA1m9oxBwfT0-6">
          <mxGeometry relative="1" as="geometry" />
        </mxCell>
        <mxCell id="WmZZTdoxgeQlKeElNgzJ-3" value="&lt;font style=&quot;font-size: 14px;&quot;&gt;Гарри Поттер и философский камень&lt;/font&gt;" style="ellipse;whiteSpace=wrap;html=1;" parent="1" vertex="1">
          <mxGeometry x="490" y="360" width="120" height="80" as="geometry" />
        </mxCell>
        <mxCell id="WmZZTdoxgeQlKeElNgzJ-10" style="rounded=0;orthogonalLoop=1;jettySize=auto;html=1;exitX=1;exitY=0;exitDx=0;exitDy=0;entryX=0;entryY=1;entryDx=0;entryDy=0;" parent="1" source="WmZZTdoxgeQlKeElNgzJ-4" target="WmZZTdoxgeQlKeElNgzJ-7" edge="1">
          <mxGeometry relative="1" as="geometry" />
        </mxCell>
        <mxCell id="WmZZTdoxgeQlKeElNgzJ-14" style="rounded=0;orthogonalLoop=1;jettySize=auto;html=1;exitX=1;exitY=0.5;exitDx=0;exitDy=0;entryX=0;entryY=0;entryDx=0;entryDy=0;" parent="1" source="WmZZTdoxgeQlKeElNgzJ-4" target="WmZZTdoxgeQlKeElNgzJ-13" edge="1">
          <mxGeometry relative="1" as="geometry" />
        </mxCell>
        <mxCell id="WmZZTdoxgeQlKeElNgzJ-28" style="rounded=0;orthogonalLoop=1;jettySize=auto;html=1;exitX=0;exitY=0.5;exitDx=0;exitDy=0;entryX=1;entryY=0;entryDx=0;entryDy=0;" parent="1" source="WmZZTdoxgeQlKeElNgzJ-4" target="WmZZTdoxgeQlKeElNgzJ-1" edge="1">
          <mxGeometry relative="1" as="geometry" />
        </mxCell>
        <mxCell id="N6IqeCfLmA1m9oxBwfT0-15" style="rounded=0;orthogonalLoop=1;jettySize=auto;html=1;exitX=0.5;exitY=0;exitDx=0;exitDy=0;entryX=0.5;entryY=1;entryDx=0;entryDy=0;" edge="1" parent="1" source="WmZZTdoxgeQlKeElNgzJ-4" target="N6IqeCfLmA1m9oxBwfT0-13">
          <mxGeometry relative="1" as="geometry" />
        </mxCell>
        <mxCell id="N6IqeCfLmA1m9oxBwfT0-16" style="rounded=0;orthogonalLoop=1;jettySize=auto;html=1;exitX=0;exitY=0;exitDx=0;exitDy=0;entryX=0.5;entryY=1;entryDx=0;entryDy=0;" edge="1" parent="1" source="WmZZTdoxgeQlKeElNgzJ-4" target="N6IqeCfLmA1m9oxBwfT0-14">
          <mxGeometry relative="1" as="geometry" />
        </mxCell>
        <mxCell id="WmZZTdoxgeQlKeElNgzJ-4" value="&lt;font style=&quot;font-size: 16px;&quot;&gt;Преступление и наказание&lt;/font&gt;" style="ellipse;whiteSpace=wrap;html=1;" parent="1" vertex="1">
          <mxGeometry x="520" y="230" width="120" height="80" as="geometry" />
        </mxCell>
        <mxCell id="WmZZTdoxgeQlKeElNgzJ-5" value="&lt;span style=&quot;font-size: 16px;&quot;&gt;Джордж Оруэлл&lt;/span&gt;" style="ellipse;whiteSpace=wrap;html=1;" parent="1" vertex="1">
          <mxGeometry x="10" y="440" width="120" height="80" as="geometry" />
        </mxCell>
        <mxCell id="WmZZTdoxgeQlKeElNgzJ-6" value="&lt;font style=&quot;font-size: 16px;&quot;&gt;1990-е&lt;/font&gt;" style="ellipse;whiteSpace=wrap;html=1;" parent="1" vertex="1">
          <mxGeometry x="643.5" y="488" width="120" height="80" as="geometry" />
        </mxCell>
        <mxCell id="WmZZTdoxgeQlKeElNgzJ-7" value="&lt;font style=&quot;font-size: 16px;&quot;&gt;Фёдор Достоевский&lt;/font&gt;" style="ellipse;whiteSpace=wrap;html=1;" parent="1" vertex="1">
          <mxGeometry x="707" y="130" width="120" height="80" as="geometry" />
        </mxCell>
        <mxCell id="WmZZTdoxgeQlKeElNgzJ-11" value="&lt;font style=&quot;font-size: 16px;&quot;&gt;Антиутопия&lt;/font&gt;" style="ellipse;whiteSpace=wrap;html=1;" parent="1" vertex="1">
          <mxGeometry x="140" y="530" width="120" height="80" as="geometry" />
        </mxCell>
        <mxCell id="WmZZTdoxgeQlKeElNgzJ-12" value="&lt;font style=&quot;font-size: 16px;&quot;&gt;12+&lt;/font&gt;" style="ellipse;whiteSpace=wrap;html=1;" parent="1" vertex="1">
          <mxGeometry x="510" y="560" width="120" height="80" as="geometry" />
        </mxCell>
        <mxCell id="WmZZTdoxgeQlKeElNgzJ-13" value="&lt;font style=&quot;font-size: 16px;&quot;&gt;Роман, психология&lt;/font&gt;" style="ellipse;whiteSpace=wrap;html=1;" parent="1" vertex="1">
          <mxGeometry x="700" y="330" width="120" height="80" as="geometry" />
        </mxCell>
        <mxCell id="WmZZTdoxgeQlKeElNgzJ-17" value="Написана" style="text;html=1;align=center;verticalAlign=middle;resizable=0;points=[];autosize=1;rotation=-20.4;" parent="1" vertex="1">
          <mxGeometry x="115" y="413" width="80" height="30" as="geometry" />
        </mxCell>
        <mxCell id="WmZZTdoxgeQlKeElNgzJ-18" value="Выпущена в" style="text;html=1;align=center;verticalAlign=middle;resizable=0;points=[];autosize=1;rotation=46.3;" parent="1" vertex="1">
          <mxGeometry x="584" y="441" width="90" height="30" as="geometry" />
        </mxCell>
        <mxCell id="WmZZTdoxgeQlKeElNgzJ-19" value="Написана" style="text;html=1;align=center;verticalAlign=middle;resizable=0;points=[];autosize=1;rotation=-22.7;" parent="1" vertex="1">
          <mxGeometry x="628" y="199" width="80" height="30" as="geometry" />
        </mxCell>
        <mxCell id="WmZZTdoxgeQlKeElNgzJ-21" value="Возраст" style="text;html=1;align=center;verticalAlign=middle;resizable=0;points=[];autosize=1;rotation=81;" parent="1" vertex="1">
          <mxGeometry x="534" y="481" width="70" height="30" as="geometry" />
        </mxCell>
        <mxCell id="WmZZTdoxgeQlKeElNgzJ-24" value="Жанр" style="text;whiteSpace=wrap;html=1;rotation=42.8;" parent="1" vertex="1">
          <mxGeometry x="654" y="278" width="42" height="40" as="geometry" />
        </mxCell>
        <mxCell id="WmZZTdoxgeQlKeElNgzJ-25" value="Жанр" style="text;whiteSpace=wrap;html=1;rotation=-62.9;" parent="1" vertex="1">
          <mxGeometry x="198" y="463" width="46" height="40" as="geometry" />
        </mxCell>
        <mxCell id="WmZZTdoxgeQlKeElNgzJ-30" value="Является" style="text;html=1;align=center;verticalAlign=middle;resizable=0;points=[];autosize=1;rotation=-36;" parent="1" vertex="1">
          <mxGeometry x="275" y="320" width="80" height="30" as="geometry" />
        </mxCell>
        <mxCell id="WmZZTdoxgeQlKeElNgzJ-32" value="Является" style="text;html=1;align=center;verticalAlign=middle;resizable=0;points=[];autosize=1;rotation=22.3;" parent="1" vertex="1">
          <mxGeometry x="447" y="340" width="80" height="30" as="geometry" />
        </mxCell>
        <mxCell id="WmZZTdoxgeQlKeElNgzJ-33" value="Является" style="text;html=1;align=center;verticalAlign=middle;resizable=0;points=[];autosize=1;rotation=-17.9;" parent="1" vertex="1">
          <mxGeometry x="447" y="256" width="80" height="30" as="geometry" />
        </mxCell>
        <mxCell id="2InDbLnJ1QowNH9i8I7--1" value="&lt;span style=&quot;font-size: 16px;&quot;&gt;16+&lt;/span&gt;" style="ellipse;whiteSpace=wrap;html=1;" vertex="1" parent="1">
          <mxGeometry x="6" y="350" width="120" height="80" as="geometry" />
        </mxCell>
        <mxCell id="2InDbLnJ1QowNH9i8I7--3" value="&lt;span style=&quot;font-size: 16px;&quot;&gt;1940-е&lt;/span&gt;" style="ellipse;whiteSpace=wrap;html=1;" vertex="1" parent="1">
          <mxGeometry x="20" y="240" width="120" height="80" as="geometry" />
        </mxCell>
        <mxCell id="2InDbLnJ1QowNH9i8I7--6" value="Возраст" style="text;html=1;align=center;verticalAlign=middle;resizable=0;points=[];autosize=1;" vertex="1" parent="1">
          <mxGeometry x="126" y="368" width="70" height="30" as="geometry" />
        </mxCell>
        <mxCell id="2InDbLnJ1QowNH9i8I7--7" value="Выпущена в" style="text;html=1;align=center;verticalAlign=middle;resizable=0;points=[];autosize=1;rotation=31.7;" vertex="1" parent="1">
          <mxGeometry x="126" y="312" width="90" height="30" as="geometry" />
        </mxCell>
        <mxCell id="N6IqeCfLmA1m9oxBwfT0-5" value="&lt;font style=&quot;font-size: 16px;&quot;&gt;Джоан Роулинг&lt;/font&gt;" style="ellipse;whiteSpace=wrap;html=1;" vertex="1" parent="1">
          <mxGeometry x="280" y="480" width="120" height="80" as="geometry" />
        </mxCell>
        <mxCell id="N6IqeCfLmA1m9oxBwfT0-6" value="&lt;font style=&quot;font-size: 16px;&quot;&gt;Фэнтези&lt;/font&gt;" style="ellipse;whiteSpace=wrap;html=1;" vertex="1" parent="1">
          <mxGeometry x="370" y="560" width="120" height="80" as="geometry" />
        </mxCell>
        <mxCell id="N6IqeCfLmA1m9oxBwfT0-9" value="Жанр" style="text;whiteSpace=wrap;html=1;rotation=-62.9;" vertex="1" parent="1">
          <mxGeometry x="440" y="481" width="46" height="40" as="geometry" />
        </mxCell>
        <mxCell id="N6IqeCfLmA1m9oxBwfT0-10" value="Написана" style="text;html=1;align=center;verticalAlign=middle;resizable=0;points=[];autosize=1;rotation=-38.6;" vertex="1" parent="1">
          <mxGeometry x="374" y="440" width="80" height="30" as="geometry" />
        </mxCell>
        <mxCell id="N6IqeCfLmA1m9oxBwfT0-13" value="&lt;font style=&quot;font-size: 16px;&quot;&gt;1860-е&lt;/font&gt;" style="ellipse;whiteSpace=wrap;html=1;" vertex="1" parent="1">
          <mxGeometry x="584" y="70" width="120" height="80" as="geometry" />
        </mxCell>
        <mxCell id="N6IqeCfLmA1m9oxBwfT0-14" value="&lt;font style=&quot;font-size: 16px;&quot;&gt;16+&lt;/font&gt;" style="ellipse;whiteSpace=wrap;html=1;" vertex="1" parent="1">
          <mxGeometry x="440" y="110" width="120" height="80" as="geometry" />
        </mxCell>
        <mxCell id="N6IqeCfLmA1m9oxBwfT0-18" value="Возраст" style="text;html=1;align=center;verticalAlign=middle;resizable=0;points=[];autosize=1;rotation=52.6;" vertex="1" parent="1">
          <mxGeometry x="490" y="197" width="70" height="30" as="geometry" />
        </mxCell>
        <mxCell id="N6IqeCfLmA1m9oxBwfT0-20" value="Выпущена в" style="text;html=1;align=center;verticalAlign=middle;resizable=0;points=[];autosize=1;rotation=-51.1;" vertex="1" parent="1">
          <mxGeometry x="559" y="174" width="90" height="30" as="geometry" />
        </mxCell>
      </root>
    </mxGraphModel>
  </diagram>
  <diagram id="I1tOHUXdr08x6Aot5NVn" name="Страница — 2">
    <mxGraphModel dx="1036" dy="614" grid="1" gridSize="10" guides="1" tooltips="1" connect="1" arrows="1" fold="1" page="1" pageScale="1" pageWidth="827" pageHeight="1169" math="0" shadow="0">
      <root>
        <mxCell id="0" />
        <mxCell id="1" parent="0" />
        <mxCell id="Pxh-u9BjVLtmvR3zvI8n-1" value="&lt;font style=&quot;font-size: 16px;&quot;&gt;Гаджет&lt;/font&gt;" style="ellipse;whiteSpace=wrap;html=1;fillColor=#ffe6cc;strokeColor=#d79b00;" parent="1" vertex="1">
          <mxGeometry x="350" y="280" width="120" height="80" as="geometry" />
        </mxCell>
        <mxCell id="Pxh-u9BjVLtmvR3zvI8n-2" style="rounded=0;orthogonalLoop=1;jettySize=auto;html=1;exitX=0;exitY=1;exitDx=0;exitDy=0;entryX=1;entryY=0;entryDx=0;entryDy=0;" parent="1" source="Pxh-u9BjVLtmvR3zvI8n-5" target="Pxh-u9BjVLtmvR3zvI8n-14" edge="1">
          <mxGeometry relative="1" as="geometry" />
        </mxCell>
        <mxCell id="Pxh-u9BjVLtmvR3zvI8n-3" style="rounded=0;orthogonalLoop=1;jettySize=auto;html=1;exitX=0.5;exitY=1;exitDx=0;exitDy=0;entryX=0.5;entryY=0;entryDx=0;entryDy=0;" parent="1" source="Pxh-u9BjVLtmvR3zvI8n-5" target="Pxh-u9BjVLtmvR3zvI8n-17" edge="1">
          <mxGeometry relative="1" as="geometry" />
        </mxCell>
        <mxCell id="Pxh-u9BjVLtmvR3zvI8n-4" style="rounded=0;orthogonalLoop=1;jettySize=auto;html=1;exitX=1;exitY=0;exitDx=0;exitDy=0;entryX=0;entryY=0.5;entryDx=0;entryDy=0;" parent="1" source="Pxh-u9BjVLtmvR3zvI8n-5" target="Pxh-u9BjVLtmvR3zvI8n-1" edge="1">
          <mxGeometry relative="1" as="geometry" />
        </mxCell>
        <mxCell id="Pxh-u9BjVLtmvR3zvI8n-30" style="edgeStyle=orthogonalEdgeStyle;rounded=0;orthogonalLoop=1;jettySize=auto;html=1;exitX=0;exitY=0.5;exitDx=0;exitDy=0;entryX=1;entryY=0.5;entryDx=0;entryDy=0;" parent="1" source="Pxh-u9BjVLtmvR3zvI8n-5" target="Pxh-u9BjVLtmvR3zvI8n-31" edge="1">
          <mxGeometry relative="1" as="geometry">
            <mxPoint x="110" y="389.9999999999999" as="targetPoint" />
          </mxGeometry>
        </mxCell>
        <mxCell id="Pxh-u9BjVLtmvR3zvI8n-5" value="&lt;font style=&quot;font-size: 16px;&quot;&gt;Типом&lt;/font&gt;" style="ellipse;whiteSpace=wrap;html=1;fillColor=#d5e8d4;strokeColor=#82b366;" parent="1" vertex="1">
          <mxGeometry x="190" y="350" width="120" height="80" as="geometry" />
        </mxCell>
        <mxCell id="Pxh-u9BjVLtmvR3zvI8n-6" style="rounded=0;orthogonalLoop=1;jettySize=auto;html=1;exitX=1;exitY=1;exitDx=0;exitDy=0;entryX=0;entryY=0;entryDx=0;entryDy=0;" parent="1" source="Pxh-u9BjVLtmvR3zvI8n-9" target="Pxh-u9BjVLtmvR3zvI8n-15" edge="1">
          <mxGeometry relative="1" as="geometry" />
        </mxCell>
        <mxCell id="Pxh-u9BjVLtmvR3zvI8n-7" style="rounded=0;orthogonalLoop=1;jettySize=auto;html=1;exitX=0.5;exitY=1;exitDx=0;exitDy=0;entryX=0.5;entryY=0;entryDx=0;entryDy=0;" parent="1" source="Pxh-u9BjVLtmvR3zvI8n-9" target="Pxh-u9BjVLtmvR3zvI8n-18" edge="1">
          <mxGeometry relative="1" as="geometry" />
        </mxCell>
        <mxCell id="Pxh-u9BjVLtmvR3zvI8n-8" style="rounded=0;orthogonalLoop=1;jettySize=auto;html=1;exitX=0;exitY=0;exitDx=0;exitDy=0;entryX=1;entryY=1;entryDx=0;entryDy=0;" parent="1" source="Pxh-u9BjVLtmvR3zvI8n-9" target="Pxh-u9BjVLtmvR3zvI8n-1" edge="1">
          <mxGeometry relative="1" as="geometry" />
        </mxCell>
        <mxCell id="Pxh-u9BjVLtmvR3zvI8n-32" style="rounded=0;orthogonalLoop=1;jettySize=auto;html=1;exitX=0;exitY=1;exitDx=0;exitDy=0;entryX=0.5;entryY=0;entryDx=0;entryDy=0;" parent="1" source="Pxh-u9BjVLtmvR3zvI8n-9" target="Pxh-u9BjVLtmvR3zvI8n-33" edge="1">
          <mxGeometry relative="1" as="geometry">
            <mxPoint x="480" y="540" as="targetPoint" />
          </mxGeometry>
        </mxCell>
        <mxCell id="Pxh-u9BjVLtmvR3zvI8n-9" value="&lt;font style=&quot;font-size: 16px;&quot;&gt;Брендом&lt;/font&gt;" style="ellipse;whiteSpace=wrap;html=1;fillColor=#d5e8d4;strokeColor=#82b366;" parent="1" vertex="1">
          <mxGeometry x="490" y="360" width="120" height="80" as="geometry" />
        </mxCell>
        <mxCell id="Pxh-u9BjVLtmvR3zvI8n-10" style="rounded=0;orthogonalLoop=1;jettySize=auto;html=1;exitX=1;exitY=0;exitDx=0;exitDy=0;entryX=0;entryY=1;entryDx=0;entryDy=0;" parent="1" source="Pxh-u9BjVLtmvR3zvI8n-13" target="Pxh-u9BjVLtmvR3zvI8n-16" edge="1">
          <mxGeometry relative="1" as="geometry" />
        </mxCell>
        <mxCell id="Pxh-u9BjVLtmvR3zvI8n-11" style="rounded=0;orthogonalLoop=1;jettySize=auto;html=1;exitX=1;exitY=0.5;exitDx=0;exitDy=0;entryX=0;entryY=0;entryDx=0;entryDy=0;" parent="1" source="Pxh-u9BjVLtmvR3zvI8n-13" target="Pxh-u9BjVLtmvR3zvI8n-19" edge="1">
          <mxGeometry relative="1" as="geometry" />
        </mxCell>
        <mxCell id="Pxh-u9BjVLtmvR3zvI8n-12" style="rounded=0;orthogonalLoop=1;jettySize=auto;html=1;exitX=0;exitY=0.5;exitDx=0;exitDy=0;entryX=1;entryY=0;entryDx=0;entryDy=0;" parent="1" source="Pxh-u9BjVLtmvR3zvI8n-13" target="Pxh-u9BjVLtmvR3zvI8n-1" edge="1">
          <mxGeometry relative="1" as="geometry" />
        </mxCell>
        <mxCell id="Pxh-u9BjVLtmvR3zvI8n-13" value="&lt;font style=&quot;font-size: 16px;&quot;&gt;Ценовой категорией&lt;/font&gt;" style="ellipse;whiteSpace=wrap;html=1;fillColor=#d5e8d4;strokeColor=#82b366;" parent="1" vertex="1">
          <mxGeometry x="520" y="230" width="120" height="80" as="geometry" />
        </mxCell>
        <mxCell id="Pxh-u9BjVLtmvR3zvI8n-14" value="&lt;font style=&quot;font-size: 16px;&quot;&gt;Ноутбук&lt;/font&gt;" style="ellipse;whiteSpace=wrap;html=1;fillColor=#dae8fc;strokeColor=#6c8ebf;" parent="1" vertex="1">
          <mxGeometry x="10" y="440" width="120" height="80" as="geometry" />
        </mxCell>
        <mxCell id="Pxh-u9BjVLtmvR3zvI8n-15" value="&lt;font style=&quot;font-size: 16px;&quot;&gt;Apple&lt;/font&gt;" style="ellipse;whiteSpace=wrap;html=1;fillColor=#dae8fc;strokeColor=#6c8ebf;" parent="1" vertex="1">
          <mxGeometry x="630" y="470" width="120" height="80" as="geometry" />
        </mxCell>
        <mxCell id="Pxh-u9BjVLtmvR3zvI8n-16" value="&lt;font style=&quot;font-size: 16px;&quot;&gt;Альтернатива, пауэр-поп&lt;/font&gt;" style="ellipse;whiteSpace=wrap;html=1;fillColor=#dae8fc;strokeColor=#6c8ebf;" parent="1" vertex="1">
          <mxGeometry x="707" y="130" width="120" height="80" as="geometry" />
        </mxCell>
        <mxCell id="Pxh-u9BjVLtmvR3zvI8n-17" value="&lt;font style=&quot;font-size: 16px;&quot;&gt;Смартфон&lt;/font&gt;" style="ellipse;whiteSpace=wrap;html=1;fillColor=#dae8fc;strokeColor=#6c8ebf;" parent="1" vertex="1">
          <mxGeometry x="140" y="530" width="120" height="80" as="geometry" />
        </mxCell>
        <mxCell id="Pxh-u9BjVLtmvR3zvI8n-18" value="&lt;font style=&quot;font-size: 16px;&quot;&gt;Samsung&lt;/font&gt;" style="ellipse;whiteSpace=wrap;html=1;fillColor=#dae8fc;strokeColor=#6c8ebf;" parent="1" vertex="1">
          <mxGeometry x="510" y="560" width="120" height="80" as="geometry" />
        </mxCell>
        <mxCell id="Pxh-u9BjVLtmvR3zvI8n-19" value="&lt;font style=&quot;font-size: 16px;&quot;&gt;1990-е&lt;/font&gt;" style="ellipse;whiteSpace=wrap;html=1;fillColor=#dae8fc;strokeColor=#6c8ebf;" parent="1" vertex="1">
          <mxGeometry x="700" y="330" width="120" height="80" as="geometry" />
        </mxCell>
        <mxCell id="Pxh-u9BjVLtmvR3zvI8n-20" value="исполняет" style="text;html=1;align=center;verticalAlign=middle;resizable=0;points=[];autosize=1;strokeColor=none;fillColor=none;rotation=-19.3;" parent="1" vertex="1">
          <mxGeometry x="118" y="414" width="80" height="30" as="geometry" />
        </mxCell>
        <mxCell id="Pxh-u9BjVLtmvR3zvI8n-21" value="исполняет" style="text;html=1;align=center;verticalAlign=middle;resizable=0;points=[];autosize=1;strokeColor=none;fillColor=none;rotation=43.7;" parent="1" vertex="1">
          <mxGeometry x="584" y="432" width="80" height="30" as="geometry" />
        </mxCell>
        <mxCell id="Pxh-u9BjVLtmvR3zvI8n-22" value="исполняет" style="text;html=1;align=center;verticalAlign=middle;resizable=0;points=[];autosize=1;strokeColor=none;fillColor=none;rotation=-22.3;" parent="1" vertex="1">
          <mxGeometry x="628" y="199" width="80" height="30" as="geometry" />
        </mxCell>
        <mxCell id="Pxh-u9BjVLtmvR3zvI8n-23" value="выпустил трек в" style="text;html=1;align=center;verticalAlign=middle;resizable=0;points=[];autosize=1;strokeColor=none;fillColor=none;rotation=81;" parent="1" vertex="1">
          <mxGeometry x="514" y="481" width="110" height="30" as="geometry" />
        </mxCell>
        <mxCell id="Pxh-u9BjVLtmvR3zvI8n-24" value="выпустил трек в" style="text;whiteSpace=wrap;html=1;rotation=42.8;" parent="1" vertex="1">
          <mxGeometry x="628" y="280" width="100" height="40" as="geometry" />
        </mxCell>
        <mxCell id="Pxh-u9BjVLtmvR3zvI8n-25" value="выпустил трек в" style="text;whiteSpace=wrap;html=1;rotation=-63.1;" parent="1" vertex="1">
          <mxGeometry x="169" y="447" width="120" height="40" as="geometry" />
        </mxCell>
        <mxCell id="Pxh-u9BjVLtmvR3zvI8n-26" value="является" style="text;html=1;align=center;verticalAlign=middle;resizable=0;points=[];autosize=1;strokeColor=none;fillColor=none;rotation=-36;" parent="1" vertex="1">
          <mxGeometry x="280" y="320" width="70" height="30" as="geometry" />
        </mxCell>
        <mxCell id="Pxh-u9BjVLtmvR3zvI8n-27" value="является" style="text;html=1;align=center;verticalAlign=middle;resizable=0;points=[];autosize=1;strokeColor=none;fillColor=none;rotation=22.3;" parent="1" vertex="1">
          <mxGeometry x="452" y="340" width="70" height="30" as="geometry" />
        </mxCell>
        <mxCell id="Pxh-u9BjVLtmvR3zvI8n-28" value="является" style="text;html=1;align=center;verticalAlign=middle;resizable=0;points=[];autosize=1;strokeColor=none;fillColor=none;rotation=-17.9;" parent="1" vertex="1">
          <mxGeometry x="452" y="256" width="70" height="30" as="geometry" />
        </mxCell>
        <mxCell id="Pxh-u9BjVLtmvR3zvI8n-31" value="&lt;font style=&quot;font-size: 16px;&quot;&gt;Планшет&lt;/font&gt;" style="ellipse;whiteSpace=wrap;html=1;fillColor=#dae8fc;strokeColor=#6c8ebf;" parent="1" vertex="1">
          <mxGeometry y="350" width="120" height="80" as="geometry" />
        </mxCell>
        <mxCell id="Pxh-u9BjVLtmvR3zvI8n-33" value="&lt;font style=&quot;font-size: 16px;&quot;&gt;Samsung&lt;/font&gt;" style="ellipse;whiteSpace=wrap;html=1;fillColor=#dae8fc;strokeColor=#6c8ebf;" parent="1" vertex="1">
          <mxGeometry x="360" y="560" width="120" height="80" as="geometry" />
        </mxCell>
      </root>
    </mxGraphModel>
  </diagram>
</mxfile>
